<?xml version="1.0" encoding="iso-8859-1"?>
<!-- Uploaded to: SVG Repo, www.svgrepo.com, Generator: SVG Repo Mixer Tools -->
<svg version="1.1" id="Layer_1" xmlns="http://www.w3.org/2000/svg" xmlns:xlink="http://www.w3.org/1999/xlink" 
	 viewBox="0 0 512 512" xml:space="preserve">
<polygon style="fill:#2B292C;" points="443,181.784 443,150.4 426.55,150.4 426.55,101.975 321.846,101.975 321.846,133.359 
	395.165,133.359 395.165,150.4 378.717,150.4 378.717,181.784 395.165,181.784 395.165,198.924 378.717,198.924 378.717,230.308 
	395.165,230.308 395.165,249.663 426.55,249.663 426.55,230.308 443,230.308 443,198.924 426.55,198.924 426.55,181.784 "/>
<polygon style="fill:#57555C;" points="85.451,150.4 69,150.4 69,181.784 85.451,181.784 85.451,198.924 69,198.924 69,230.308 
	85.451,230.308 85.451,249.663 116.835,249.663 116.835,230.308 133.283,230.308 133.283,198.924 116.835,198.924 116.835,181.784 
	133.283,181.784 133.283,150.4 116.835,150.4 116.835,133.359 190.154,133.359 190.154,101.975 85.451,101.975 "/>
<path style="fill:#AEADB3;" d="M333.153,65.969l-31.091,4.3l4.519,32.671l-50.298,34.428l-0.91,0.628l-49.974-34.209l4.634-33.518
	l-31.081-4.3l-57.663,417.084h49.179l84.842-81.902l0.973,0.942l83.869,80.96h50.664L333.153,65.969z M311.382,137.682l5.9,42.693
	l-34.135-23.371L311.382,137.682z M200.597,138.529l26.99,18.475l-32.629,22.335L200.597,138.529z M189.152,221.352l66.22-45.329
	l0.91,0.628l66.806,45.727l6.078,43.959H182.927L189.152,221.352z M157.234,452.213l17.774-128.581l57.705,55.707L157.234,452.213z
	 M255.31,357.528l-61.952-59.808h123.904l-60.979,58.866L255.31,357.528z M277.906,379.339l59.013-56.973l18.171,131.489
	L277.906,379.339z"/>
<path style="fill:#8B8892;" d="M333.153,65.969l-31.091,4.3l4.519,32.671l-50.298,34.428v39.282l66.806,45.727l6.078,43.959h-72.884
	v31.384h60.979l-60.979,58.866v45.507l83.869,80.96h50.664L333.153,65.969z M283.147,157.004l28.235-19.322l5.9,42.693
	L283.147,157.004z M277.906,379.339l59.013-56.973l18.171,131.489L277.906,379.339z"/>
<g>
	<rect x="153.876" style="fill:#57555C;" width="204.352" height="83.816"/>
	<rect x="44.68" y="480.616" style="fill:#57555C;" width="422.639" height="31.384"/>
</g>
<g>
	<rect x="256.282" style="fill:#2B292C;" width="101.946" height="83.816"/>
	<rect x="256.282" y="480.616" style="fill:#2B292C;" width="211.037" height="31.384"/>
</g>
</svg>